ISO-10303-21;
HEADER;
FILE_DESCRIPTION(('FreeCAD Model'),'2;1');
FILE_NAME('Open CASCADE Shape Model','2026-07-29T17:57:25',(''),(''),
  'Open CASCADE STEP processor 7.8','FreeCAD','Unknown');
FILE_SCHEMA(('AUTOMOTIVE_DESIGN { 1 0 10303 214 1 1 1 1 }'));
ENDSEC;
DATA;
#1 = APPLICATION_PROTOCOL_DEFINITION('international standard',
  'automotive_design',2000,#2);
#2 = APPLICATION_CONTEXT(
  'core data for automotive mechanical design processes');
#3 = SHAPE_DEFINITION_REPRESENTATION(#4,#10);
#4 = PRODUCT_DEFINITION_SHAPE('','',#5);
#5 = PRODUCT_DEFINITION('design','',#6,#9);
#6 = PRODUCT_DEFINITION_FORMATION('','',#7);
#7 = PRODUCT('Body','Body','',(#8));
#8 = PRODUCT_CONTEXT('',#2,'mechanical');
#9 = PRODUCT_DEFINITION_CONTEXT('part definition',#2,'design');
#10 = ADVANCED_BREP_SHAPE_REPRESENTATION('',(#11,#15),#1004);
#11 = AXIS2_PLACEMENT_3D('',#12,#13,#14);
#12 = CARTESIAN_POINT('',(0.,0.,0.));
#13 = DIRECTION('',(0.,0.,1.));
#14 = DIRECTION('',(1.,0.,-0.));
#15 = MANIFOLD_SOLID_BREP('',#16);
#16 = CLOSED_SHELL('',(#17,#121,#176,#223,#247,#294,#334,#358,#391,#408,
    #456,#473,#490,#507,#558,#570,#582,#599,#682,#694,#725,#749,#773,
    #790,#821,#845,#869,#893,#917,#941,#965,#982));
#17 = ADVANCED_FACE('',(#18),#116,.T.);
#18 = FACE_BOUND('',#19,.T.);
#19 = EDGE_LOOP('',(#20,#30,#38,#46,#54,#62,#70,#78,#86,#94,#102,#110));
#20 = ORIENTED_EDGE('',*,*,#21,.F.);
#21 = EDGE_CURVE('',#22,#24,#26,.T.);
#22 = VERTEX_POINT('',#23);
#23 = CARTESIAN_POINT('',(-21.3631,12.4906,-17.05));
#24 = VERTEX_POINT('',#25);
#25 = CARTESIAN_POINT('',(21.345156,12.4906,-17.05));
#26 = LINE('',#27,#28);
#27 = CARTESIAN_POINT('',(-21.3631,12.4906,-17.05));
#28 = VECTOR('',#29,1.);
#29 = DIRECTION('',(1.,0.,0.));
#30 = ORIENTED_EDGE('',*,*,#31,.T.);
#31 = EDGE_CURVE('',#22,#32,#34,.T.);
#32 = VERTEX_POINT('',#33);
#33 = CARTESIAN_POINT('',(-21.3631,12.4906,17.05));
#34 = LINE('',#35,#36);
#35 = CARTESIAN_POINT('',(-21.3631,12.4906,-17.05));
#36 = VECTOR('',#37,1.);
#37 = DIRECTION('',(0.,0.,1.));
#38 = ORIENTED_EDGE('',*,*,#39,.T.);
#39 = EDGE_CURVE('',#32,#40,#42,.T.);
#40 = VERTEX_POINT('',#41);
#41 = CARTESIAN_POINT('',(21.345156,12.4906,17.05));
#42 = LINE('',#43,#44);
#43 = CARTESIAN_POINT('',(-21.3631,12.4906,17.05));
#44 = VECTOR('',#45,1.);
#45 = DIRECTION('',(1.,0.,0.));
#46 = ORIENTED_EDGE('',*,*,#47,.F.);
#47 = EDGE_CURVE('',#48,#40,#50,.T.);
#48 = VERTEX_POINT('',#49);
#49 = CARTESIAN_POINT('',(21.345156,12.4906,6.));
#50 = LINE('',#51,#52);
#51 = CARTESIAN_POINT('',(21.345156,12.4906,-17.05));
#52 = VECTOR('',#53,1.);
#53 = DIRECTION('',(0.,0.,1.));
#54 = ORIENTED_EDGE('',*,*,#55,.T.);
#55 = EDGE_CURVE('',#48,#56,#58,.T.);
#56 = VERTEX_POINT('',#57);
#57 = CARTESIAN_POINT('',(17.345156,12.4906,6.));
#58 = LINE('',#59,#60);
#59 = CARTESIAN_POINT('',(21.345156,12.4906,6.));
#60 = VECTOR('',#61,1.);
#61 = DIRECTION('',(-1.,0.,0.));
#62 = ORIENTED_EDGE('',*,*,#63,.F.);
#63 = EDGE_CURVE('',#64,#56,#66,.T.);
#64 = VERTEX_POINT('',#65);
#65 = CARTESIAN_POINT('',(17.345156,12.4906,13.05));
#66 = LINE('',#67,#68);
#67 = CARTESIAN_POINT('',(17.345156,12.4906,13.05));
#68 = VECTOR('',#69,1.);
#69 = DIRECTION('',(-0.,-0.,-1.));
#70 = ORIENTED_EDGE('',*,*,#71,.T.);
#71 = EDGE_CURVE('',#64,#72,#74,.T.);
#72 = VERTEX_POINT('',#73);
#73 = CARTESIAN_POINT('',(-17.3631,12.4906,13.05));
#74 = LINE('',#75,#76);
#75 = CARTESIAN_POINT('',(17.345156,12.4906,13.05));
#76 = VECTOR('',#77,1.);
#77 = DIRECTION('',(-1.,0.,0.));
#78 = ORIENTED_EDGE('',*,*,#79,.T.);
#79 = EDGE_CURVE('',#72,#80,#82,.T.);
#80 = VERTEX_POINT('',#81);
#81 = CARTESIAN_POINT('',(-17.3631,12.4906,-13.05));
#82 = LINE('',#83,#84);
#83 = CARTESIAN_POINT('',(-17.3631,12.4906,13.05));
#84 = VECTOR('',#85,1.);
#85 = DIRECTION('',(-0.,-0.,-1.));
#86 = ORIENTED_EDGE('',*,*,#87,.F.);
#87 = EDGE_CURVE('',#88,#80,#90,.T.);
#88 = VERTEX_POINT('',#89);
#89 = CARTESIAN_POINT('',(17.345156,12.4906,-13.05));
#90 = LINE('',#91,#92);
#91 = CARTESIAN_POINT('',(17.345156,12.4906,-13.05));
#92 = VECTOR('',#93,1.);
#93 = DIRECTION('',(-1.,0.,0.));
#94 = ORIENTED_EDGE('',*,*,#95,.F.);
#95 = EDGE_CURVE('',#96,#88,#98,.T.);
#96 = VERTEX_POINT('',#97);
#97 = CARTESIAN_POINT('',(17.345156,12.4906,-6.));
#98 = LINE('',#99,#100);
#99 = CARTESIAN_POINT('',(17.345156,12.4906,13.05));
#100 = VECTOR('',#101,1.);
#101 = DIRECTION('',(-0.,-0.,-1.));
#102 = ORIENTED_EDGE('',*,*,#103,.F.);
#103 = EDGE_CURVE('',#104,#96,#106,.T.);
#104 = VERTEX_POINT('',#105);
#105 = CARTESIAN_POINT('',(21.345156,12.4906,-6.));
#106 = LINE('',#107,#108);
#107 = CARTESIAN_POINT('',(21.345156,12.4906,-6.));
#108 = VECTOR('',#109,1.);
#109 = DIRECTION('',(-1.,0.,0.));
#110 = ORIENTED_EDGE('',*,*,#111,.F.);
#111 = EDGE_CURVE('',#24,#104,#112,.T.);
#112 = LINE('',#113,#114);
#113 = CARTESIAN_POINT('',(21.345156,12.4906,-17.05));
#114 = VECTOR('',#115,1.);
#115 = DIRECTION('',(0.,0.,1.));
#116 = PLANE('',#117);
#117 = AXIS2_PLACEMENT_3D('',#118,#119,#120);
#118 = CARTESIAN_POINT('',(-21.3631,12.4906,-17.05));
#119 = DIRECTION('',(0.,1.,0.));
#120 = DIRECTION('',(1.,0.,0.));
#121 = ADVANCED_FACE('',(#122),#171,.F.);
#122 = FACE_BOUND('',#123,.T.);
#123 = EDGE_LOOP('',(#124,#125,#133,#141,#149,#157,#165));
#124 = ORIENTED_EDGE('',*,*,#21,.T.);
#125 = ORIENTED_EDGE('',*,*,#126,.T.);
#126 = EDGE_CURVE('',#24,#127,#129,.T.);
#127 = VERTEX_POINT('',#128);
#128 = CARTESIAN_POINT('',(21.345156,-6.344954,-17.05));
#129 = LINE('',#130,#131);
#130 = CARTESIAN_POINT('',(21.345156,12.4906,-17.05));
#131 = VECTOR('',#132,1.);
#132 = DIRECTION('',(0.,-1.,0.));
#133 = ORIENTED_EDGE('',*,*,#134,.T.);
#134 = EDGE_CURVE('',#127,#135,#137,.T.);
#135 = VERTEX_POINT('',#136);
#136 = CARTESIAN_POINT('',(1.76055,-22.2314,-17.05));
#137 = LINE('',#138,#139);
#138 = CARTESIAN_POINT('',(21.345156,-6.344954,-17.05));
#139 = VECTOR('',#140,1.);
#140 = DIRECTION('',(-0.776619243589,-0.629970277464,0.));
#141 = ORIENTED_EDGE('',*,*,#142,.T.);
#142 = EDGE_CURVE('',#135,#143,#145,.T.);
#143 = VERTEX_POINT('',#144);
#144 = CARTESIAN_POINT('',(-4.5613065,-22.2314,-17.05));
#145 = LINE('',#146,#147);
#146 = CARTESIAN_POINT('',(1.76055,-22.2314,-17.05));
#147 = VECTOR('',#148,1.);
#148 = DIRECTION('',(-1.,0.,0.));
#149 = ORIENTED_EDGE('',*,*,#150,.T.);
#150 = EDGE_CURVE('',#143,#151,#153,.T.);
#151 = VERTEX_POINT('',#152);
#152 = CARTESIAN_POINT('',(-22.990253,5.345949,-17.05));
#153 = LINE('',#154,#155);
#154 = CARTESIAN_POINT('',(-4.5613065,-22.2314,-17.05));
#155 = VECTOR('',#156,1.);
#156 = DIRECTION('',(-0.555619235158,0.831436868031,0.));
#157 = ORIENTED_EDGE('',*,*,#158,.T.);
#158 = EDGE_CURVE('',#151,#159,#161,.T.);
#159 = VERTEX_POINT('',#160);
#160 = CARTESIAN_POINT('',(-21.3631,6.456292,-17.05));
#161 = LINE('',#162,#163);
#162 = CARTESIAN_POINT('',(-22.990253,5.345949,-17.05));
#163 = VECTOR('',#164,1.);
#164 = DIRECTION('',(0.826009786719,0.563655774604,0.));
#165 = ORIENTED_EDGE('',*,*,#166,.T.);
#166 = EDGE_CURVE('',#159,#22,#167,.T.);
#167 = LINE('',#168,#169);
#168 = CARTESIAN_POINT('',(-21.3631,6.456292,-17.05));
#169 = VECTOR('',#170,1.);
#170 = DIRECTION('',(0.,1.,0.));
#171 = PLANE('',#172);
#172 = AXIS2_PLACEMENT_3D('',#173,#174,#175);
#173 = CARTESIAN_POINT('',(0.406927127929,-0.899552074124,-17.05));
#174 = DIRECTION('',(0.,0.,1.));
#175 = DIRECTION('',(1.,0.,0.));
#176 = ADVANCED_FACE('',(#177),#218,.T.);
#177 = FACE_BOUND('',#178,.T.);
#178 = EDGE_LOOP('',(#179,#180,#181,#189,#197,#203,#204,#212));
#179 = ORIENTED_EDGE('',*,*,#126,.F.);
#180 = ORIENTED_EDGE('',*,*,#111,.T.);
#181 = ORIENTED_EDGE('',*,*,#182,.F.);
#182 = EDGE_CURVE('',#183,#104,#185,.T.);
#183 = VERTEX_POINT('',#184);
#184 = CARTESIAN_POINT('',(21.345156,7.9906,-6.));
#185 = LINE('',#186,#187);
#186 = CARTESIAN_POINT('',(21.345156,7.9906,-6.));
#187 = VECTOR('',#188,1.);
#188 = DIRECTION('',(0.,1.,0.));
#189 = ORIENTED_EDGE('',*,*,#190,.F.);
#190 = EDGE_CURVE('',#191,#183,#193,.T.);
#191 = VERTEX_POINT('',#192);
#192 = CARTESIAN_POINT('',(21.345156,7.9906,6.));
#193 = LINE('',#194,#195);
#194 = CARTESIAN_POINT('',(21.345156,7.9906,6.));
#195 = VECTOR('',#196,1.);
#196 = DIRECTION('',(-0.,-0.,-1.));
#197 = ORIENTED_EDGE('',*,*,#198,.T.);
#198 = EDGE_CURVE('',#191,#48,#199,.T.);
#199 = LINE('',#200,#201);
#200 = CARTESIAN_POINT('',(21.345156,7.9906,6.));
#201 = VECTOR('',#202,1.);
#202 = DIRECTION('',(0.,1.,0.));
#203 = ORIENTED_EDGE('',*,*,#47,.T.);
#204 = ORIENTED_EDGE('',*,*,#205,.T.);
#205 = EDGE_CURVE('',#40,#206,#208,.T.);
#206 = VERTEX_POINT('',#207);
#207 = CARTESIAN_POINT('',(21.345156,-6.344954,17.05));
#208 = LINE('',#209,#210);
#209 = CARTESIAN_POINT('',(21.345156,12.4906,17.05));
#210 = VECTOR('',#211,1.);
#211 = DIRECTION('',(0.,-1.,0.));
#212 = ORIENTED_EDGE('',*,*,#213,.F.);
#213 = EDGE_CURVE('',#127,#206,#214,.T.);
#214 = LINE('',#215,#216);
#215 = CARTESIAN_POINT('',(21.345156,-6.344954,-17.05));
#216 = VECTOR('',#217,1.);
#217 = DIRECTION('',(0.,0.,1.));
#218 = PLANE('',#219);
#219 = AXIS2_PLACEMENT_3D('',#220,#221,#222);
#220 = CARTESIAN_POINT('',(21.345156,12.4906,-17.05));
#221 = DIRECTION('',(1.,0.,0.));
#222 = DIRECTION('',(0.,-1.,0.));
#223 = ADVANCED_FACE('',(#224),#242,.T.);
#224 = FACE_BOUND('',#225,.T.);
#225 = EDGE_LOOP('',(#226,#234,#240,#241));
#226 = ORIENTED_EDGE('',*,*,#227,.T.);
#227 = EDGE_CURVE('',#96,#228,#230,.T.);
#228 = VERTEX_POINT('',#229);
#229 = CARTESIAN_POINT('',(17.345156,7.9906,-6.));
#230 = LINE('',#231,#232);
#231 = CARTESIAN_POINT('',(17.345156,12.4906,-6.));
#232 = VECTOR('',#233,1.);
#233 = DIRECTION('',(0.,-1.,0.));
#234 = ORIENTED_EDGE('',*,*,#235,.T.);
#235 = EDGE_CURVE('',#228,#183,#236,.T.);
#236 = LINE('',#237,#238);
#237 = CARTESIAN_POINT('',(17.345156,7.9906,-6.));
#238 = VECTOR('',#239,1.);
#239 = DIRECTION('',(1.,0.,0.));
#240 = ORIENTED_EDGE('',*,*,#182,.T.);
#241 = ORIENTED_EDGE('',*,*,#103,.T.);
#242 = PLANE('',#243);
#243 = AXIS2_PLACEMENT_3D('',#244,#245,#246);
#244 = CARTESIAN_POINT('',(19.345156,10.2406,-6.));
#245 = DIRECTION('',(0.,0.,1.));
#246 = DIRECTION('',(1.,0.,0.));
#247 = ADVANCED_FACE('',(#248),#289,.F.);
#248 = FACE_BOUND('',#249,.F.);
#249 = EDGE_LOOP('',(#250,#258,#266,#272,#273,#274,#282,#288));
#250 = ORIENTED_EDGE('',*,*,#251,.F.);
#251 = EDGE_CURVE('',#252,#64,#254,.T.);
#252 = VERTEX_POINT('',#253);
#253 = CARTESIAN_POINT('',(17.345156,-8.589629556284,13.05));
#254 = LINE('',#255,#256);
#255 = CARTESIAN_POINT('',(17.345156,-8.589629556284,13.05));
#256 = VECTOR('',#257,1.);
#257 = DIRECTION('',(0.,1.,0.));
#258 = ORIENTED_EDGE('',*,*,#259,.T.);
#259 = EDGE_CURVE('',#252,#260,#262,.T.);
#260 = VERTEX_POINT('',#261);
#261 = CARTESIAN_POINT('',(17.345156,-8.589629556284,-13.05));
#262 = LINE('',#263,#264);
#263 = CARTESIAN_POINT('',(17.345156,-8.589629556284,13.05));
#264 = VECTOR('',#265,1.);
#265 = DIRECTION('',(-0.,-0.,-1.));
#266 = ORIENTED_EDGE('',*,*,#267,.T.);
#267 = EDGE_CURVE('',#260,#88,#268,.T.);
#268 = LINE('',#269,#270);
#269 = CARTESIAN_POINT('',(17.345156,-8.589629556284,-13.05));
#270 = VECTOR('',#271,1.);
#271 = DIRECTION('',(0.,1.,0.));
#272 = ORIENTED_EDGE('',*,*,#95,.F.);
#273 = ORIENTED_EDGE('',*,*,#227,.T.);
#274 = ORIENTED_EDGE('',*,*,#275,.F.);
#275 = EDGE_CURVE('',#276,#228,#278,.T.);
#276 = VERTEX_POINT('',#277);
#277 = CARTESIAN_POINT('',(17.345156,7.9906,6.));
#278 = LINE('',#279,#280);
#279 = CARTESIAN_POINT('',(17.345156,7.9906,6.));
#280 = VECTOR('',#281,1.);
#281 = DIRECTION('',(-0.,-0.,-1.));
#282 = ORIENTED_EDGE('',*,*,#283,.F.);
#283 = EDGE_CURVE('',#56,#276,#284,.T.);
#284 = LINE('',#285,#286);
#285 = CARTESIAN_POINT('',(17.345156,12.4906,6.));
#286 = VECTOR('',#287,1.);
#287 = DIRECTION('',(0.,-1.,0.));
#288 = ORIENTED_EDGE('',*,*,#63,.F.);
#289 = PLANE('',#290);
#290 = AXIS2_PLACEMENT_3D('',#291,#292,#293);
#291 = CARTESIAN_POINT('',(17.345156,-8.589629556284,13.05));
#292 = DIRECTION('',(1.,0.,0.));
#293 = DIRECTION('',(0.,1.,0.));
#294 = ADVANCED_FACE('',(#295),#329,.T.);
#295 = FACE_BOUND('',#296,.T.);
#296 = EDGE_LOOP('',(#297,#305,#313,#321,#327,#328));
#297 = ORIENTED_EDGE('',*,*,#298,.T.);
#298 = EDGE_CURVE('',#80,#299,#301,.T.);
#299 = VERTEX_POINT('',#300);
#300 = CARTESIAN_POINT('',(-17.3631,0.517260281885,-13.05));
#301 = LINE('',#302,#303);
#302 = CARTESIAN_POINT('',(-17.3631,12.4906,-13.05));
#303 = VECTOR('',#304,1.);
#304 = DIRECTION('',(0.,-1.,0.));
#305 = ORIENTED_EDGE('',*,*,#306,.T.);
#306 = EDGE_CURVE('',#299,#307,#309,.T.);
#307 = VERTEX_POINT('',#308);
#308 = CARTESIAN_POINT('',(-2.82925569243,-21.2314,-13.05));
#309 = LINE('',#310,#311);
#310 = CARTESIAN_POINT('',(-17.3631,0.517260281885,-13.05));
#311 = VECTOR('',#312,1.);
#312 = DIRECTION('',(0.555619235158,-0.831436868031,0.));
#313 = ORIENTED_EDGE('',*,*,#314,.T.);
#314 = EDGE_CURVE('',#307,#315,#317,.T.);
#315 = VERTEX_POINT('',#316);
#316 = CARTESIAN_POINT('',(1.760544232042,-21.2314,-13.05));
#317 = LINE('',#318,#319);
#318 = CARTESIAN_POINT('',(-2.82925569243,-21.2314,-13.05));
#319 = VECTOR('',#320,1.);
#320 = DIRECTION('',(1.,0.,0.));
#321 = ORIENTED_EDGE('',*,*,#322,.T.);
#322 = EDGE_CURVE('',#315,#260,#323,.T.);
#323 = LINE('',#324,#325);
#324 = CARTESIAN_POINT('',(1.760544232042,-21.2314,-13.05));
#325 = VECTOR('',#326,1.);
#326 = DIRECTION('',(0.776619243589,0.629970277464,0.));
#327 = ORIENTED_EDGE('',*,*,#267,.T.);
#328 = ORIENTED_EDGE('',*,*,#87,.T.);
#329 = PLANE('',#330);
#330 = AXIS2_PLACEMENT_3D('',#331,#332,#333);
#331 = CARTESIAN_POINT('',(0.696476757941,-0.970366308774,-13.05));
#332 = DIRECTION('',(0.,0.,1.));
#333 = DIRECTION('',(1.,0.,0.));
#334 = ADVANCED_FACE('',(#335),#353,.F.);
#335 = FACE_BOUND('',#336,.F.);
#336 = EDGE_LOOP('',(#337,#338,#339,#347));
#337 = ORIENTED_EDGE('',*,*,#79,.T.);
#338 = ORIENTED_EDGE('',*,*,#298,.T.);
#339 = ORIENTED_EDGE('',*,*,#340,.F.);
#340 = EDGE_CURVE('',#341,#299,#343,.T.);
#341 = VERTEX_POINT('',#342);
#342 = CARTESIAN_POINT('',(-17.3631,0.517260281885,13.05));
#343 = LINE('',#344,#345);
#344 = CARTESIAN_POINT('',(-17.3631,0.517260281885,13.05));
#345 = VECTOR('',#346,1.);
#346 = DIRECTION('',(-0.,-0.,-1.));
#347 = ORIENTED_EDGE('',*,*,#348,.F.);
#348 = EDGE_CURVE('',#72,#341,#349,.T.);
#349 = LINE('',#350,#351);
#350 = CARTESIAN_POINT('',(-17.3631,12.4906,13.05));
#351 = VECTOR('',#352,1.);
#352 = DIRECTION('',(0.,-1.,0.));
#353 = PLANE('',#354);
#354 = AXIS2_PLACEMENT_3D('',#355,#356,#357);
#355 = CARTESIAN_POINT('',(-17.3631,12.4906,13.05));
#356 = DIRECTION('',(-1.,0.,0.));
#357 = DIRECTION('',(0.,-1.,0.));
#358 = ADVANCED_FACE('',(#359),#386,.F.);
#359 = FACE_BOUND('',#360,.F.);
#360 = EDGE_LOOP('',(#361,#362,#370,#378,#384,#385));
#361 = ORIENTED_EDGE('',*,*,#348,.T.);
#362 = ORIENTED_EDGE('',*,*,#363,.T.);
#363 = EDGE_CURVE('',#341,#364,#366,.T.);
#364 = VERTEX_POINT('',#365);
#365 = CARTESIAN_POINT('',(-2.82925569243,-21.2314,13.05));
#366 = LINE('',#367,#368);
#367 = CARTESIAN_POINT('',(-17.3631,0.517260281885,13.05));
#368 = VECTOR('',#369,1.);
#369 = DIRECTION('',(0.555619235158,-0.831436868031,0.));
#370 = ORIENTED_EDGE('',*,*,#371,.T.);
#371 = EDGE_CURVE('',#364,#372,#374,.T.);
#372 = VERTEX_POINT('',#373);
#373 = CARTESIAN_POINT('',(1.760544232042,-21.2314,13.05));
#374 = LINE('',#375,#376);
#375 = CARTESIAN_POINT('',(-2.82925569243,-21.2314,13.05));
#376 = VECTOR('',#377,1.);
#377 = DIRECTION('',(1.,0.,0.));
#378 = ORIENTED_EDGE('',*,*,#379,.T.);
#379 = EDGE_CURVE('',#372,#252,#380,.T.);
#380 = LINE('',#381,#382);
#381 = CARTESIAN_POINT('',(1.760544232042,-21.2314,13.05));
#382 = VECTOR('',#383,1.);
#383 = DIRECTION('',(0.776619243589,0.629970277464,0.));
#384 = ORIENTED_EDGE('',*,*,#251,.T.);
#385 = ORIENTED_EDGE('',*,*,#71,.T.);
#386 = PLANE('',#387);
#387 = AXIS2_PLACEMENT_3D('',#388,#389,#390);
#388 = CARTESIAN_POINT('',(0.696476757941,-0.970366308774,13.05));
#389 = DIRECTION('',(0.,0.,1.));
#390 = DIRECTION('',(1.,0.,0.));
#391 = ADVANCED_FACE('',(#392),#403,.F.);
#392 = FACE_BOUND('',#393,.F.);
#393 = EDGE_LOOP('',(#394,#395,#401,#402));
#394 = ORIENTED_EDGE('',*,*,#283,.T.);
#395 = ORIENTED_EDGE('',*,*,#396,.T.);
#396 = EDGE_CURVE('',#276,#191,#397,.T.);
#397 = LINE('',#398,#399);
#398 = CARTESIAN_POINT('',(17.345156,7.9906,6.));
#399 = VECTOR('',#400,1.);
#400 = DIRECTION('',(1.,0.,0.));
#401 = ORIENTED_EDGE('',*,*,#198,.T.);
#402 = ORIENTED_EDGE('',*,*,#55,.T.);
#403 = PLANE('',#404);
#404 = AXIS2_PLACEMENT_3D('',#405,#406,#407);
#405 = CARTESIAN_POINT('',(19.345156,10.2406,6.));
#406 = DIRECTION('',(0.,0.,1.));
#407 = DIRECTION('',(1.,0.,0.));
#408 = ADVANCED_FACE('',(#409),#451,.T.);
#409 = FACE_BOUND('',#410,.F.);
#410 = EDGE_LOOP('',(#411,#412,#413,#421,#429,#437,#445));
#411 = ORIENTED_EDGE('',*,*,#39,.T.);
#412 = ORIENTED_EDGE('',*,*,#205,.T.);
#413 = ORIENTED_EDGE('',*,*,#414,.T.);
#414 = EDGE_CURVE('',#206,#415,#417,.T.);
#415 = VERTEX_POINT('',#416);
#416 = CARTESIAN_POINT('',(1.76055,-22.2314,17.05));
#417 = LINE('',#418,#419);
#418 = CARTESIAN_POINT('',(21.345156,-6.344954,17.05));
#419 = VECTOR('',#420,1.);
#420 = DIRECTION('',(-0.776619243589,-0.629970277464,0.));
#421 = ORIENTED_EDGE('',*,*,#422,.T.);
#422 = EDGE_CURVE('',#415,#423,#425,.T.);
#423 = VERTEX_POINT('',#424);
#424 = CARTESIAN_POINT('',(-4.5613065,-22.2314,17.05));
#425 = LINE('',#426,#427);
#426 = CARTESIAN_POINT('',(1.76055,-22.2314,17.05));
#427 = VECTOR('',#428,1.);
#428 = DIRECTION('',(-1.,0.,0.));
#429 = ORIENTED_EDGE('',*,*,#430,.T.);
#430 = EDGE_CURVE('',#423,#431,#433,.T.);
#431 = VERTEX_POINT('',#432);
#432 = CARTESIAN_POINT('',(-22.990253,5.345949,17.05));
#433 = LINE('',#434,#435);
#434 = CARTESIAN_POINT('',(-4.5613065,-22.2314,17.05));
#435 = VECTOR('',#436,1.);
#436 = DIRECTION('',(-0.555619235158,0.831436868031,0.));
#437 = ORIENTED_EDGE('',*,*,#438,.T.);
#438 = EDGE_CURVE('',#431,#439,#441,.T.);
#439 = VERTEX_POINT('',#440);
#440 = CARTESIAN_POINT('',(-21.3631,6.456292,17.05));
#441 = LINE('',#442,#443);
#442 = CARTESIAN_POINT('',(-22.990253,5.345949,17.05));
#443 = VECTOR('',#444,1.);
#444 = DIRECTION('',(0.826009786719,0.563655774604,0.));
#445 = ORIENTED_EDGE('',*,*,#446,.T.);
#446 = EDGE_CURVE('',#439,#32,#447,.T.);
#447 = LINE('',#448,#449);
#448 = CARTESIAN_POINT('',(-21.3631,6.456292,17.05));
#449 = VECTOR('',#450,1.);
#450 = DIRECTION('',(0.,1.,0.));
#451 = PLANE('',#452);
#452 = AXIS2_PLACEMENT_3D('',#453,#454,#455);
#453 = CARTESIAN_POINT('',(0.406927127929,-0.899552074124,17.05));
#454 = DIRECTION('',(0.,0.,1.));
#455 = DIRECTION('',(1.,0.,0.));
#456 = ADVANCED_FACE('',(#457),#468,.T.);
#457 = FACE_BOUND('',#458,.T.);
#458 = EDGE_LOOP('',(#459,#465,#466,#467));
#459 = ORIENTED_EDGE('',*,*,#460,.T.);
#460 = EDGE_CURVE('',#159,#439,#461,.T.);
#461 = LINE('',#462,#463);
#462 = CARTESIAN_POINT('',(-21.3631,6.456292,-17.05));
#463 = VECTOR('',#464,1.);
#464 = DIRECTION('',(0.,0.,1.));
#465 = ORIENTED_EDGE('',*,*,#446,.T.);
#466 = ORIENTED_EDGE('',*,*,#31,.F.);
#467 = ORIENTED_EDGE('',*,*,#166,.F.);
#468 = PLANE('',#469);
#469 = AXIS2_PLACEMENT_3D('',#470,#471,#472);
#470 = CARTESIAN_POINT('',(-21.3631,6.456292,-17.05));
#471 = DIRECTION('',(-1.,0.,0.));
#472 = DIRECTION('',(0.,1.,0.));
#473 = ADVANCED_FACE('',(#474),#485,.T.);
#474 = FACE_BOUND('',#475,.T.);
#475 = EDGE_LOOP('',(#476,#477,#478,#484));
#476 = ORIENTED_EDGE('',*,*,#213,.T.);
#477 = ORIENTED_EDGE('',*,*,#414,.T.);
#478 = ORIENTED_EDGE('',*,*,#479,.F.);
#479 = EDGE_CURVE('',#135,#415,#480,.T.);
#480 = LINE('',#481,#482);
#481 = CARTESIAN_POINT('',(1.76055,-22.2314,-17.05));
#482 = VECTOR('',#483,1.);
#483 = DIRECTION('',(0.,0.,1.));
#484 = ORIENTED_EDGE('',*,*,#134,.F.);
#485 = PLANE('',#486);
#486 = AXIS2_PLACEMENT_3D('',#487,#488,#489);
#487 = CARTESIAN_POINT('',(21.345156,-6.344954,-17.05));
#488 = DIRECTION('',(0.629970277464,-0.776619243589,0.));
#489 = DIRECTION('',(-0.776619243589,-0.629970277464,0.));
#490 = ADVANCED_FACE('',(#491),#502,.T.);
#491 = FACE_BOUND('',#492,.T.);
#492 = EDGE_LOOP('',(#493,#494,#495,#501));
#493 = ORIENTED_EDGE('',*,*,#479,.T.);
#494 = ORIENTED_EDGE('',*,*,#422,.T.);
#495 = ORIENTED_EDGE('',*,*,#496,.F.);
#496 = EDGE_CURVE('',#143,#423,#497,.T.);
#497 = LINE('',#498,#499);
#498 = CARTESIAN_POINT('',(-4.5613065,-22.2314,-17.05));
#499 = VECTOR('',#500,1.);
#500 = DIRECTION('',(0.,0.,1.));
#501 = ORIENTED_EDGE('',*,*,#142,.F.);
#502 = PLANE('',#503);
#503 = AXIS2_PLACEMENT_3D('',#504,#505,#506);
#504 = CARTESIAN_POINT('',(1.76055,-22.2314,-17.05));
#505 = DIRECTION('',(0.,-1.,0.));
#506 = DIRECTION('',(-1.,0.,0.));
#507 = ADVANCED_FACE('',(#508,#519),#553,.T.);
#508 = FACE_BOUND('',#509,.T.);
#509 = EDGE_LOOP('',(#510,#511,#512,#518));
#510 = ORIENTED_EDGE('',*,*,#496,.T.);
#511 = ORIENTED_EDGE('',*,*,#430,.T.);
#512 = ORIENTED_EDGE('',*,*,#513,.F.);
#513 = EDGE_CURVE('',#151,#431,#514,.T.);
#514 = LINE('',#515,#516);
#515 = CARTESIAN_POINT('',(-22.990253,5.345949,-17.05));
#516 = VECTOR('',#517,1.);
#517 = DIRECTION('',(0.,0.,1.));
#518 = ORIENTED_EDGE('',*,*,#150,.F.);
#519 = FACE_BOUND('',#520,.T.);
#520 = EDGE_LOOP('',(#521,#531,#539,#547));
#521 = ORIENTED_EDGE('',*,*,#522,.F.);
#522 = EDGE_CURVE('',#523,#525,#527,.T.);
#523 = VERTEX_POINT('',#524);
#524 = CARTESIAN_POINT('',(-9.978402887054,-14.12517658498,-11.));
#525 = VERTEX_POINT('',#526);
#526 = CARTESIAN_POINT('',(-9.978402887054,-14.12517658498,11.));
#527 = LINE('',#528,#529);
#528 = CARTESIAN_POINT('',(-9.978402887054,-14.12517658498,-3.025));
#529 = VECTOR('',#530,1.);
#530 = DIRECTION('',(-1.2E-16,1.8E-16,1.));
#531 = ORIENTED_EDGE('',*,*,#532,.F.);
#532 = EDGE_CURVE('',#533,#523,#535,.T.);
#533 = VERTEX_POINT('',#534);
#534 = CARTESIAN_POINT('',(-16.09021447379,-4.979371036636,-11.));
#535 = LINE('',#536,#537);
#536 = CARTESIAN_POINT('',(-7.269854693527,-18.17828829249,-11.));
#537 = VECTOR('',#538,1.);
#538 = DIRECTION('',(0.555619235158,-0.831436868031,2.2E-16));
#539 = ORIENTED_EDGE('',*,*,#540,.F.);
#540 = EDGE_CURVE('',#541,#533,#543,.T.);
#541 = VERTEX_POINT('',#542);
#542 = CARTESIAN_POINT('',(-16.09021447379,-4.979371036636,11.));
#543 = LINE('',#544,#545);
#544 = CARTESIAN_POINT('',(-16.09021447379,-4.979371036636,-14.025));
#545 = VECTOR('',#546,1.);
#546 = DIRECTION('',(1.2E-16,-1.8E-16,-1.));
#547 = ORIENTED_EDGE('',*,*,#548,.F.);
#548 = EDGE_CURVE('',#525,#541,#549,.T.);
#549 = LINE('',#550,#551);
#550 = CARTESIAN_POINT('',(-10.32576048689,-13.60538551831,11.));
#551 = VECTOR('',#552,1.);
#552 = DIRECTION('',(-0.555619235158,0.831436868031,-2.2E-16));
#553 = PLANE('',#554);
#554 = AXIS2_PLACEMENT_3D('',#555,#556,#557);
#555 = CARTESIAN_POINT('',(-4.5613065,-22.2314,-17.05));
#556 = DIRECTION('',(-0.831436868031,-0.555619235158,0.));
#557 = DIRECTION('',(-0.555619235158,0.831436868031,0.));
#558 = ADVANCED_FACE('',(#559),#565,.T.);
#559 = FACE_BOUND('',#560,.T.);
#560 = EDGE_LOOP('',(#561,#562,#563,#564));
#561 = ORIENTED_EDGE('',*,*,#513,.T.);
#562 = ORIENTED_EDGE('',*,*,#438,.T.);
#563 = ORIENTED_EDGE('',*,*,#460,.F.);
#564 = ORIENTED_EDGE('',*,*,#158,.F.);
#565 = PLANE('',#566);
#566 = AXIS2_PLACEMENT_3D('',#567,#568,#569);
#567 = CARTESIAN_POINT('',(-22.990253,5.345949,-17.05));
#568 = DIRECTION('',(-0.563655774604,0.826009786719,0.));
#569 = DIRECTION('',(0.826009786719,0.563655774604,0.));
#570 = ADVANCED_FACE('',(#571),#577,.F.);
#571 = FACE_BOUND('',#572,.F.);
#572 = EDGE_LOOP('',(#573,#574,#575,#576));
#573 = ORIENTED_EDGE('',*,*,#275,.T.);
#574 = ORIENTED_EDGE('',*,*,#235,.T.);
#575 = ORIENTED_EDGE('',*,*,#190,.F.);
#576 = ORIENTED_EDGE('',*,*,#396,.F.);
#577 = PLANE('',#578);
#578 = AXIS2_PLACEMENT_3D('',#579,#580,#581);
#579 = CARTESIAN_POINT('',(17.345156,7.9906,6.));
#580 = DIRECTION('',(0.,-1.,0.));
#581 = DIRECTION('',(1.,0.,0.));
#582 = ADVANCED_FACE('',(#583),#594,.F.);
#583 = FACE_BOUND('',#584,.F.);
#584 = EDGE_LOOP('',(#585,#591,#592,#593));
#585 = ORIENTED_EDGE('',*,*,#586,.T.);
#586 = EDGE_CURVE('',#372,#315,#587,.T.);
#587 = LINE('',#588,#589);
#588 = CARTESIAN_POINT('',(1.760544232042,-21.2314,13.05));
#589 = VECTOR('',#590,1.);
#590 = DIRECTION('',(-0.,-0.,-1.));
#591 = ORIENTED_EDGE('',*,*,#322,.T.);
#592 = ORIENTED_EDGE('',*,*,#259,.F.);
#593 = ORIENTED_EDGE('',*,*,#379,.F.);
#594 = PLANE('',#595);
#595 = AXIS2_PLACEMENT_3D('',#596,#597,#598);
#596 = CARTESIAN_POINT('',(1.760544232042,-21.2314,13.05));
#597 = DIRECTION('',(0.629970277464,-0.776619243589,0.));
#598 = DIRECTION('',(0.776619243589,0.629970277464,0.));
#599 = ADVANCED_FACE('',(#600,#611),#677,.F.);
#600 = FACE_BOUND('',#601,.F.);
#601 = EDGE_LOOP('',(#602,#603,#604,#610));
#602 = ORIENTED_EDGE('',*,*,#340,.T.);
#603 = ORIENTED_EDGE('',*,*,#306,.T.);
#604 = ORIENTED_EDGE('',*,*,#605,.F.);
#605 = EDGE_CURVE('',#364,#307,#606,.T.);
#606 = LINE('',#607,#608);
#607 = CARTESIAN_POINT('',(-2.82925569243,-21.2314,13.05));
#608 = VECTOR('',#609,1.);
#609 = DIRECTION('',(-0.,-0.,-1.));
#610 = ORIENTED_EDGE('',*,*,#363,.F.);
#611 = FACE_BOUND('',#612,.F.);
#612 = EDGE_LOOP('',(#613,#623,#631,#639,#647,#655,#663,#671));
#613 = ORIENTED_EDGE('',*,*,#614,.T.);
#614 = EDGE_CURVE('',#615,#617,#619,.T.);
#615 = VERTEX_POINT('',#616);
#616 = CARTESIAN_POINT('',(-15.09765057277,-2.872791856816,12.45));
#617 = VERTEX_POINT('',#618);
#618 = CARTESIAN_POINT('',(-5.485437804537,-17.25664967376,12.45));
#619 = LINE('',#620,#621);
#620 = CARTESIAN_POINT('',(-15.09765057277,-2.872791856816,12.45));
#621 = VECTOR('',#622,1.);
#622 = DIRECTION('',(0.555619235158,-0.831436868031,0.));
#623 = ORIENTED_EDGE('',*,*,#624,.T.);
#624 = EDGE_CURVE('',#617,#625,#627,.T.);
#625 = VERTEX_POINT('',#626);
#626 = CARTESIAN_POINT('',(-5.485437804537,-17.25664967376,8.5));
#627 = LINE('',#628,#629);
#628 = CARTESIAN_POINT('',(-5.485437804537,-17.25664967376,12.45));
#629 = VECTOR('',#630,1.);
#630 = DIRECTION('',(0.,0.,-1.));
#631 = ORIENTED_EDGE('',*,*,#632,.T.);
#632 = EDGE_CURVE('',#625,#633,#635,.T.);
#633 = VERTEX_POINT('',#634);
#634 = CARTESIAN_POINT('',(-3.262960863903,-20.58239714588,8.5));
#635 = LINE('',#636,#637);
#636 = CARTESIAN_POINT('',(-5.485437804537,-17.25664967376,8.5));
#637 = VECTOR('',#638,1.);
#638 = DIRECTION('',(0.555619235158,-0.831436868031,0.));
#639 = ORIENTED_EDGE('',*,*,#640,.T.);
#640 = EDGE_CURVE('',#633,#641,#643,.T.);
#641 = VERTEX_POINT('',#642);
#642 = CARTESIAN_POINT('',(-3.262960863903,-20.58239714588,-8.5));
#643 = LINE('',#644,#645);
#644 = CARTESIAN_POINT('',(-3.262960863903,-20.58239714588,8.5));
#645 = VECTOR('',#646,1.);
#646 = DIRECTION('',(0.,0.,-1.));
#647 = ORIENTED_EDGE('',*,*,#648,.T.);
#648 = EDGE_CURVE('',#641,#649,#651,.T.);
#649 = VERTEX_POINT('',#650);
#650 = CARTESIAN_POINT('',(-5.485437804537,-17.25664967376,-8.5));
#651 = LINE('',#652,#653);
#652 = CARTESIAN_POINT('',(-3.262960863903,-20.58239714588,-8.5));
#653 = VECTOR('',#654,1.);
#654 = DIRECTION('',(-0.555619235158,0.831436868031,0.));
#655 = ORIENTED_EDGE('',*,*,#656,.T.);
#656 = EDGE_CURVE('',#649,#657,#659,.T.);
#657 = VERTEX_POINT('',#658);
#658 = CARTESIAN_POINT('',(-5.485437804537,-17.25664967376,-12.45));
#659 = LINE('',#660,#661);
#660 = CARTESIAN_POINT('',(-5.485437804537,-17.25664967376,-8.5));
#661 = VECTOR('',#662,1.);
#662 = DIRECTION('',(0.,0.,-1.));
#663 = ORIENTED_EDGE('',*,*,#664,.T.);
#664 = EDGE_CURVE('',#657,#665,#667,.T.);
#665 = VERTEX_POINT('',#666);
#666 = CARTESIAN_POINT('',(-15.09765057277,-2.872791856816,-12.45));
#667 = LINE('',#668,#669);
#668 = CARTESIAN_POINT('',(-5.485437804537,-17.25664967376,-12.45));
#669 = VECTOR('',#670,1.);
#670 = DIRECTION('',(-0.555619235158,0.831436868031,0.));
#671 = ORIENTED_EDGE('',*,*,#672,.T.);
#672 = EDGE_CURVE('',#665,#615,#673,.T.);
#673 = LINE('',#674,#675);
#674 = CARTESIAN_POINT('',(-15.09765057277,-2.872791856816,-12.45));
#675 = VECTOR('',#676,1.);
#676 = DIRECTION('',(0.,0.,1.));
#677 = PLANE('',#678);
#678 = AXIS2_PLACEMENT_3D('',#679,#680,#681);
#679 = CARTESIAN_POINT('',(-17.3631,0.517260281885,13.05));
#680 = DIRECTION('',(-0.831436868031,-0.555619235158,0.));
#681 = DIRECTION('',(0.555619235158,-0.831436868031,0.));
#682 = ADVANCED_FACE('',(#683),#689,.F.);
#683 = FACE_BOUND('',#684,.F.);
#684 = EDGE_LOOP('',(#685,#686,#687,#688));
#685 = ORIENTED_EDGE('',*,*,#605,.T.);
#686 = ORIENTED_EDGE('',*,*,#314,.T.);
#687 = ORIENTED_EDGE('',*,*,#586,.F.);
#688 = ORIENTED_EDGE('',*,*,#371,.F.);
#689 = PLANE('',#690);
#690 = AXIS2_PLACEMENT_3D('',#691,#692,#693);
#691 = CARTESIAN_POINT('',(-2.82925569243,-21.2314,13.05));
#692 = DIRECTION('',(0.,-1.,0.));
#693 = DIRECTION('',(1.,0.,0.));
#694 = ADVANCED_FACE('',(#695),#720,.F.);
#695 = FACE_BOUND('',#696,.F.);
#696 = EDGE_LOOP('',(#697,#707,#713,#714));
#697 = ORIENTED_EDGE('',*,*,#698,.F.);
#698 = EDGE_CURVE('',#699,#701,#703,.T.);
#699 = VERTEX_POINT('',#700);
#700 = CARTESIAN_POINT('',(-9.150532771877,-13.57194088195,11.));
#701 = VERTEX_POINT('',#702);
#702 = CARTESIAN_POINT('',(-9.150532771877,-13.57194088195,-11.));
#703 = LINE('',#704,#705);
#704 = CARTESIAN_POINT('',(-9.150532771877,-13.57194088195,11.));
#705 = VECTOR('',#706,1.);
#706 = DIRECTION('',(0.,-0.,-1.));
#707 = ORIENTED_EDGE('',*,*,#708,.T.);
#708 = EDGE_CURVE('',#699,#525,#709,.T.);
#709 = LINE('',#710,#711);
#710 = CARTESIAN_POINT('',(-9.150532771877,-13.57194088195,11.));
#711 = VECTOR('',#712,1.);
#712 = DIRECTION('',(-0.831436868031,-0.555619235158,6.E-17));
#713 = ORIENTED_EDGE('',*,*,#522,.F.);
#714 = ORIENTED_EDGE('',*,*,#715,.F.);
#715 = EDGE_CURVE('',#701,#523,#716,.T.);
#716 = LINE('',#717,#718);
#717 = CARTESIAN_POINT('',(-9.150532771877,-13.57194088195,-11.));
#718 = VECTOR('',#719,1.);
#719 = DIRECTION('',(-0.831436868031,-0.555619235158,6.E-17));
#720 = PLANE('',#721);
#721 = AXIS2_PLACEMENT_3D('',#722,#723,#724);
#722 = CARTESIAN_POINT('',(-9.150532771877,-13.57194088195,11.));
#723 = DIRECTION('',(0.555619235158,-0.831436868031,2.2E-16));
#724 = DIRECTION('',(5.74621348256E-17,-2.26202300895E-16,-1.));
#725 = ADVANCED_FACE('',(#726),#744,.F.);
#726 = FACE_BOUND('',#727,.F.);
#727 = EDGE_LOOP('',(#728,#736,#742,#743));
#728 = ORIENTED_EDGE('',*,*,#729,.F.);
#729 = EDGE_CURVE('',#730,#699,#732,.T.);
#730 = VERTEX_POINT('',#731);
#731 = CARTESIAN_POINT('',(-15.26234435862,-4.426135333612,11.));
#732 = LINE('',#733,#734);
#733 = CARTESIAN_POINT('',(-15.26234435862,-4.426135333612,11.));
#734 = VECTOR('',#735,1.);
#735 = DIRECTION('',(0.555619235158,-0.831436868031,-0.));
#736 = ORIENTED_EDGE('',*,*,#737,.T.);
#737 = EDGE_CURVE('',#730,#541,#738,.T.);
#738 = LINE('',#739,#740);
#739 = CARTESIAN_POINT('',(-15.26234435862,-4.426135333612,11.));
#740 = VECTOR('',#741,1.);
#741 = DIRECTION('',(-0.831436868031,-0.555619235158,6.E-17));
#742 = ORIENTED_EDGE('',*,*,#548,.F.);
#743 = ORIENTED_EDGE('',*,*,#708,.F.);
#744 = PLANE('',#745);
#745 = AXIS2_PLACEMENT_3D('',#746,#747,#748);
#746 = CARTESIAN_POINT('',(-15.26234435862,-4.426135333612,11.));
#747 = DIRECTION('',(-8.E-17,2.2E-16,1.));
#748 = DIRECTION('',(0.555619235158,-0.831436868031,2.273656497796E-16)
  );
#749 = ADVANCED_FACE('',(#750),#768,.F.);
#750 = FACE_BOUND('',#751,.F.);
#751 = EDGE_LOOP('',(#752,#760,#766,#767));
#752 = ORIENTED_EDGE('',*,*,#753,.F.);
#753 = EDGE_CURVE('',#754,#730,#756,.T.);
#754 = VERTEX_POINT('',#755);
#755 = CARTESIAN_POINT('',(-15.26234435862,-4.426135333612,-11.));
#756 = LINE('',#757,#758);
#757 = CARTESIAN_POINT('',(-15.26234435862,-4.426135333612,-11.));
#758 = VECTOR('',#759,1.);
#759 = DIRECTION('',(0.,0.,1.));
#760 = ORIENTED_EDGE('',*,*,#761,.T.);
#761 = EDGE_CURVE('',#754,#533,#762,.T.);
#762 = LINE('',#763,#764);
#763 = CARTESIAN_POINT('',(-15.26234435862,-4.426135333612,-11.));
#764 = VECTOR('',#765,1.);
#765 = DIRECTION('',(-0.831436868031,-0.555619235158,6.E-17));
#766 = ORIENTED_EDGE('',*,*,#540,.F.);
#767 = ORIENTED_EDGE('',*,*,#737,.F.);
#768 = PLANE('',#769);
#769 = AXIS2_PLACEMENT_3D('',#770,#771,#772);
#770 = CARTESIAN_POINT('',(-15.26234435862,-4.426135333612,-11.));
#771 = DIRECTION('',(-0.555619235158,0.831436868031,-2.2E-16));
#772 = DIRECTION('',(-5.74621348256E-17,2.26202300895E-16,1.));
#773 = ADVANCED_FACE('',(#774),#785,.F.);
#774 = FACE_BOUND('',#775,.F.);
#775 = EDGE_LOOP('',(#776,#782,#783,#784));
#776 = ORIENTED_EDGE('',*,*,#777,.F.);
#777 = EDGE_CURVE('',#701,#754,#778,.T.);
#778 = LINE('',#779,#780);
#779 = CARTESIAN_POINT('',(-9.150532771877,-13.57194088195,-11.));
#780 = VECTOR('',#781,1.);
#781 = DIRECTION('',(-0.555619235158,0.831436868031,0.));
#782 = ORIENTED_EDGE('',*,*,#715,.T.);
#783 = ORIENTED_EDGE('',*,*,#532,.F.);
#784 = ORIENTED_EDGE('',*,*,#761,.F.);
#785 = PLANE('',#786);
#786 = AXIS2_PLACEMENT_3D('',#787,#788,#789);
#787 = CARTESIAN_POINT('',(-9.150532771877,-13.57194088195,-11.));
#788 = DIRECTION('',(8.E-17,-2.2E-16,-1.));
#789 = DIRECTION('',(-0.555619235158,0.831436868031,-2.273656497796E-16)
  );
#790 = ADVANCED_FACE('',(#791),#816,.F.);
#791 = FACE_BOUND('',#792,.F.);
#792 = EDGE_LOOP('',(#793,#801,#809,#815));
#793 = ORIENTED_EDGE('',*,*,#794,.T.);
#794 = EDGE_CURVE('',#615,#795,#797,.T.);
#795 = VERTEX_POINT('',#796);
#796 = CARTESIAN_POINT('',(-15.92908744081,-3.428411091975,12.45));
#797 = LINE('',#798,#799);
#798 = CARTESIAN_POINT('',(-15.09765057277,-2.872791856816,12.45));
#799 = VECTOR('',#800,1.);
#800 = DIRECTION('',(-0.831436868031,-0.555619235158,1.1E-16));
#801 = ORIENTED_EDGE('',*,*,#802,.T.);
#802 = EDGE_CURVE('',#795,#803,#805,.T.);
#803 = VERTEX_POINT('',#804);
#804 = CARTESIAN_POINT('',(-6.316874672568,-17.81226890891,12.45));
#805 = LINE('',#806,#807);
#806 = CARTESIAN_POINT('',(-15.92908744081,-3.428411091975,12.45));
#807 = VECTOR('',#808,1.);
#808 = DIRECTION('',(0.555619235158,-0.831436868031,0.));
#809 = ORIENTED_EDGE('',*,*,#810,.F.);
#810 = EDGE_CURVE('',#617,#803,#811,.T.);
#811 = LINE('',#812,#813);
#812 = CARTESIAN_POINT('',(-5.485437804537,-17.25664967376,12.45));
#813 = VECTOR('',#814,1.);
#814 = DIRECTION('',(-0.831436868031,-0.555619235158,1.1E-16));
#815 = ORIENTED_EDGE('',*,*,#614,.F.);
#816 = PLANE('',#817);
#817 = AXIS2_PLACEMENT_3D('',#818,#819,#820);
#818 = CARTESIAN_POINT('',(-15.09765057277,-2.872791856816,12.45));
#819 = DIRECTION('',(6.E-17,1.1E-16,1.));
#820 = DIRECTION('',(0.555619235158,-0.831436868031,5.812090137395E-17)
  );
#821 = ADVANCED_FACE('',(#822),#840,.F.);
#822 = FACE_BOUND('',#823,.F.);
#823 = EDGE_LOOP('',(#824,#832,#838,#839));
#824 = ORIENTED_EDGE('',*,*,#825,.T.);
#825 = EDGE_CURVE('',#665,#826,#828,.T.);
#826 = VERTEX_POINT('',#827);
#827 = CARTESIAN_POINT('',(-15.92908744081,-3.428411091975,-12.45));
#828 = LINE('',#829,#830);
#829 = CARTESIAN_POINT('',(-15.09765057277,-2.872791856816,-12.45));
#830 = VECTOR('',#831,1.);
#831 = DIRECTION('',(-0.831436868031,-0.555619235158,1.1E-16));
#832 = ORIENTED_EDGE('',*,*,#833,.T.);
#833 = EDGE_CURVE('',#826,#795,#834,.T.);
#834 = LINE('',#835,#836);
#835 = CARTESIAN_POINT('',(-15.92908744081,-3.428411091975,-12.45));
#836 = VECTOR('',#837,1.);
#837 = DIRECTION('',(0.,0.,1.));
#838 = ORIENTED_EDGE('',*,*,#794,.F.);
#839 = ORIENTED_EDGE('',*,*,#672,.F.);
#840 = PLANE('',#841);
#841 = AXIS2_PLACEMENT_3D('',#842,#843,#844);
#842 = CARTESIAN_POINT('',(-15.09765057277,-2.872791856816,-12.45));
#843 = DIRECTION('',(-0.555619235158,0.831436868031,-6.E-17));
#844 = DIRECTION('',(5.895593665861E-17,1.115623518764E-16,1.));
#845 = ADVANCED_FACE('',(#846),#864,.F.);
#846 = FACE_BOUND('',#847,.F.);
#847 = EDGE_LOOP('',(#848,#856,#862,#863));
#848 = ORIENTED_EDGE('',*,*,#849,.T.);
#849 = EDGE_CURVE('',#657,#850,#852,.T.);
#850 = VERTEX_POINT('',#851);
#851 = CARTESIAN_POINT('',(-6.316874672568,-17.81226890891,-12.45));
#852 = LINE('',#853,#854);
#853 = CARTESIAN_POINT('',(-5.485437804537,-17.25664967376,-12.45));
#854 = VECTOR('',#855,1.);
#855 = DIRECTION('',(-0.831436868031,-0.555619235158,1.1E-16));
#856 = ORIENTED_EDGE('',*,*,#857,.T.);
#857 = EDGE_CURVE('',#850,#826,#858,.T.);
#858 = LINE('',#859,#860);
#859 = CARTESIAN_POINT('',(-6.316874672568,-17.81226890891,-12.45));
#860 = VECTOR('',#861,1.);
#861 = DIRECTION('',(-0.555619235158,0.831436868031,0.));
#862 = ORIENTED_EDGE('',*,*,#825,.F.);
#863 = ORIENTED_EDGE('',*,*,#664,.F.);
#864 = PLANE('',#865);
#865 = AXIS2_PLACEMENT_3D('',#866,#867,#868);
#866 = CARTESIAN_POINT('',(-5.485437804537,-17.25664967376,-12.45));
#867 = DIRECTION('',(-6.E-17,-1.1E-16,-1.));
#868 = DIRECTION('',(-0.555619235158,0.831436868031,-5.812090137395E-17)
  );
#869 = ADVANCED_FACE('',(#870),#888,.F.);
#870 = FACE_BOUND('',#871,.F.);
#871 = EDGE_LOOP('',(#872,#880,#886,#887));
#872 = ORIENTED_EDGE('',*,*,#873,.T.);
#873 = EDGE_CURVE('',#649,#874,#876,.T.);
#874 = VERTEX_POINT('',#875);
#875 = CARTESIAN_POINT('',(-6.316874672568,-17.81226890891,-8.5));
#876 = LINE('',#877,#878);
#877 = CARTESIAN_POINT('',(-5.485437804537,-17.25664967376,-8.5));
#878 = VECTOR('',#879,1.);
#879 = DIRECTION('',(-0.831436868031,-0.555619235158,1.1E-16));
#880 = ORIENTED_EDGE('',*,*,#881,.T.);
#881 = EDGE_CURVE('',#874,#850,#882,.T.);
#882 = LINE('',#883,#884);
#883 = CARTESIAN_POINT('',(-6.316874672568,-17.81226890891,-8.5));
#884 = VECTOR('',#885,1.);
#885 = DIRECTION('',(0.,0.,-1.));
#886 = ORIENTED_EDGE('',*,*,#849,.F.);
#887 = ORIENTED_EDGE('',*,*,#656,.F.);
#888 = PLANE('',#889);
#889 = AXIS2_PLACEMENT_3D('',#890,#891,#892);
#890 = CARTESIAN_POINT('',(-5.485437804537,-17.25664967376,-8.5));
#891 = DIRECTION('',(0.555619235158,-0.831436868031,6.E-17));
#892 = DIRECTION('',(-5.895593665861E-17,-1.115623518764E-16,-1.));
#893 = ADVANCED_FACE('',(#894),#912,.F.);
#894 = FACE_BOUND('',#895,.F.);
#895 = EDGE_LOOP('',(#896,#904,#910,#911));
#896 = ORIENTED_EDGE('',*,*,#897,.T.);
#897 = EDGE_CURVE('',#641,#898,#900,.T.);
#898 = VERTEX_POINT('',#899);
#899 = CARTESIAN_POINT('',(-4.094397731934,-21.13801638104,-8.5));
#900 = LINE('',#901,#902);
#901 = CARTESIAN_POINT('',(-3.262960863903,-20.58239714588,-8.5));
#902 = VECTOR('',#903,1.);
#903 = DIRECTION('',(-0.831436868031,-0.555619235158,1.1E-16));
#904 = ORIENTED_EDGE('',*,*,#905,.T.);
#905 = EDGE_CURVE('',#898,#874,#906,.T.);
#906 = LINE('',#907,#908);
#907 = CARTESIAN_POINT('',(-4.094397731934,-21.13801638104,-8.5));
#908 = VECTOR('',#909,1.);
#909 = DIRECTION('',(-0.555619235158,0.831436868031,0.));
#910 = ORIENTED_EDGE('',*,*,#873,.F.);
#911 = ORIENTED_EDGE('',*,*,#648,.F.);
#912 = PLANE('',#913);
#913 = AXIS2_PLACEMENT_3D('',#914,#915,#916);
#914 = CARTESIAN_POINT('',(-3.262960863903,-20.58239714588,-8.5));
#915 = DIRECTION('',(-6.E-17,-1.1E-16,-1.));
#916 = DIRECTION('',(-0.555619235158,0.831436868031,-5.812090137395E-17)
  );
#917 = ADVANCED_FACE('',(#918),#936,.F.);
#918 = FACE_BOUND('',#919,.F.);
#919 = EDGE_LOOP('',(#920,#928,#934,#935));
#920 = ORIENTED_EDGE('',*,*,#921,.T.);
#921 = EDGE_CURVE('',#633,#922,#924,.T.);
#922 = VERTEX_POINT('',#923);
#923 = CARTESIAN_POINT('',(-4.094397731934,-21.13801638104,8.5));
#924 = LINE('',#925,#926);
#925 = CARTESIAN_POINT('',(-3.262960863903,-20.58239714588,8.5));
#926 = VECTOR('',#927,1.);
#927 = DIRECTION('',(-0.831436868031,-0.555619235158,1.1E-16));
#928 = ORIENTED_EDGE('',*,*,#929,.T.);
#929 = EDGE_CURVE('',#922,#898,#930,.T.);
#930 = LINE('',#931,#932);
#931 = CARTESIAN_POINT('',(-4.094397731934,-21.13801638104,8.5));
#932 = VECTOR('',#933,1.);
#933 = DIRECTION('',(0.,0.,-1.));
#934 = ORIENTED_EDGE('',*,*,#897,.F.);
#935 = ORIENTED_EDGE('',*,*,#640,.F.);
#936 = PLANE('',#937);
#937 = AXIS2_PLACEMENT_3D('',#938,#939,#940);
#938 = CARTESIAN_POINT('',(-3.262960863903,-20.58239714588,8.5));
#939 = DIRECTION('',(0.555619235158,-0.831436868031,6.E-17));
#940 = DIRECTION('',(-5.895593665861E-17,-1.115623518764E-16,-1.));
#941 = ADVANCED_FACE('',(#942),#960,.F.);
#942 = FACE_BOUND('',#943,.F.);
#943 = EDGE_LOOP('',(#944,#952,#958,#959));
#944 = ORIENTED_EDGE('',*,*,#945,.T.);
#945 = EDGE_CURVE('',#625,#946,#948,.T.);
#946 = VERTEX_POINT('',#947);
#947 = CARTESIAN_POINT('',(-6.316874672568,-17.81226890891,8.5));
#948 = LINE('',#949,#950);
#949 = CARTESIAN_POINT('',(-5.485437804537,-17.25664967376,8.5));
#950 = VECTOR('',#951,1.);
#951 = DIRECTION('',(-0.831436868031,-0.555619235158,1.1E-16));
#952 = ORIENTED_EDGE('',*,*,#953,.T.);
#953 = EDGE_CURVE('',#946,#922,#954,.T.);
#954 = LINE('',#955,#956);
#955 = CARTESIAN_POINT('',(-6.316874672568,-17.81226890891,8.5));
#956 = VECTOR('',#957,1.);
#957 = DIRECTION('',(0.555619235158,-0.831436868031,0.));
#958 = ORIENTED_EDGE('',*,*,#921,.F.);
#959 = ORIENTED_EDGE('',*,*,#632,.F.);
#960 = PLANE('',#961);
#961 = AXIS2_PLACEMENT_3D('',#962,#963,#964);
#962 = CARTESIAN_POINT('',(-5.485437804537,-17.25664967376,8.5));
#963 = DIRECTION('',(6.E-17,1.1E-16,1.));
#964 = DIRECTION('',(0.555619235158,-0.831436868031,5.812090137395E-17)
  );
#965 = ADVANCED_FACE('',(#966),#977,.F.);
#966 = FACE_BOUND('',#967,.F.);
#967 = EDGE_LOOP('',(#968,#969,#975,#976));
#968 = ORIENTED_EDGE('',*,*,#810,.T.);
#969 = ORIENTED_EDGE('',*,*,#970,.T.);
#970 = EDGE_CURVE('',#803,#946,#971,.T.);
#971 = LINE('',#972,#973);
#972 = CARTESIAN_POINT('',(-6.316874672568,-17.81226890891,12.45));
#973 = VECTOR('',#974,1.);
#974 = DIRECTION('',(0.,0.,-1.));
#975 = ORIENTED_EDGE('',*,*,#945,.F.);
#976 = ORIENTED_EDGE('',*,*,#624,.F.);
#977 = PLANE('',#978);
#978 = AXIS2_PLACEMENT_3D('',#979,#980,#981);
#979 = CARTESIAN_POINT('',(-5.485437804537,-17.25664967376,12.45));
#980 = DIRECTION('',(0.555619235158,-0.831436868031,6.E-17));
#981 = DIRECTION('',(-5.895593665861E-17,-1.115623518764E-16,-1.));
#982 = ADVANCED_FACE('',(#983,#993),#999,.T.);
#983 = FACE_BOUND('',#984,.T.);
#984 = EDGE_LOOP('',(#985,#986,#987,#988,#989,#990,#991,#992));
#985 = ORIENTED_EDGE('',*,*,#970,.T.);
#986 = ORIENTED_EDGE('',*,*,#953,.T.);
#987 = ORIENTED_EDGE('',*,*,#929,.T.);
#988 = ORIENTED_EDGE('',*,*,#905,.T.);
#989 = ORIENTED_EDGE('',*,*,#881,.T.);
#990 = ORIENTED_EDGE('',*,*,#857,.T.);
#991 = ORIENTED_EDGE('',*,*,#833,.T.);
#992 = ORIENTED_EDGE('',*,*,#802,.T.);
#993 = FACE_BOUND('',#994,.T.);
#994 = EDGE_LOOP('',(#995,#996,#997,#998));
#995 = ORIENTED_EDGE('',*,*,#698,.F.);
#996 = ORIENTED_EDGE('',*,*,#729,.F.);
#997 = ORIENTED_EDGE('',*,*,#753,.F.);
#998 = ORIENTED_EDGE('',*,*,#777,.F.);
#999 = PLANE('',#1000);
#1000 = AXIS2_PLACEMENT_3D('',#1001,#1002,#1003);
#1001 = CARTESIAN_POINT('',(-10.20175955424,-11.99886952623,0.));
#1002 = DIRECTION('',(0.831436868031,0.555619235158,-1.1E-16));
#1003 = DIRECTION('',(-0.555619235158,0.831436868031,0.));
#1004 = ( GEOMETRIC_REPRESENTATION_CONTEXT(3) 
GLOBAL_UNCERTAINTY_ASSIGNED_CONTEXT((#1008)) 
GLOBAL_UNIT_ASSIGNED_CONTEXT((#1005,#1006,#1007)) REPRESENTATION_CONTEXT
('Context #1','3D Context with UNIT and UNCERTAINTY') );
#1005 = ( LENGTH_UNIT() NAMED_UNIT(*) SI_UNIT(.MILLI.,.METRE.) );
#1006 = ( NAMED_UNIT(*) PLANE_ANGLE_UNIT() SI_UNIT($,.RADIAN.) );
#1007 = ( NAMED_UNIT(*) SI_UNIT($,.STERADIAN.) SOLID_ANGLE_UNIT() );
#1008 = UNCERTAINTY_MEASURE_WITH_UNIT(LENGTH_MEASURE(5.E-06),#1005,
  'distance_accuracy_value','confusion accuracy');
#1009 = PRODUCT_RELATED_PRODUCT_CATEGORY('part',$,(#7));
#1010 = MECHANICAL_DESIGN_GEOMETRIC_PRESENTATION_REPRESENTATION('',(
    #1011),#1004);
#1011 = STYLED_ITEM('color',(#1012),#15);
#1012 = PRESENTATION_STYLE_ASSIGNMENT((#1013,#1019));
#1013 = SURFACE_STYLE_USAGE(.BOTH.,#1014);
#1014 = SURFACE_SIDE_STYLE('',(#1015));
#1015 = SURFACE_STYLE_FILL_AREA(#1016);
#1016 = FILL_AREA_STYLE('',(#1017));
#1017 = FILL_AREA_STYLE_COLOUR('',#1018);
#1018 = COLOUR_RGB('',0.800000010877,0.800000010877,0.901960800373);
#1019 = CURVE_STYLE('',#1020,POSITIVE_LENGTH_MEASURE(0.1),#1021);
#1020 = DRAUGHTING_PRE_DEFINED_CURVE_FONT('continuous');
#1021 = COLOUR_RGB('',9.803921802644E-02,9.803921802644E-02,
  9.803921802644E-02);
ENDSEC;
END-ISO-10303-21;
